<svg width="32" height="23" viewBox="0 0 32 23" fill="none" xmlns="http://www.w3.org/2000/svg">
<path opacity="0.4" d="M30.1766 0C29.17 0 28.3531 0.804937 28.3531 1.80075C28.3531 8.52657 22.8116 13.9991 16.0009 13.9991C9.18846 13.9991 3.64694 8.52657 3.64694 1.80075C3.64694 0.804937 2.83002 0 1.82347 0C0.816914 0 0 0.804937 0 1.80075C0 9.90415 6.21074 16.594 14.1775 17.4925V21.1157C14.1775 22.1097 14.9926 22.9164 16.0009 22.9164C17.0075 22.9164 17.8244 22.1097 17.8244 21.1157V17.4925C25.7893 16.594 32.0001 9.90415 32.0001 1.80075C32.0001 0.804937 31.1831 0 30.1766 0Z" fill="#1BA9BD"/>
</svg>
